<svg width="118" height="24" viewBox="0 0 118 24" fill="none" xmlns="http://www.w3.org/2000/svg">
<path d="M5.78417 -0.000183105C6.51658 -0.000183105 7.19279 0.398843 7.52293 1.05262C7.78754 1.57662 8.07114 2.16149 8.37373 2.80723C8.92058 3.90281 9.47883 5.1011 10.0485 6.4021C10.6409 7.68027 11.2219 8.99268 11.7916 10.3393C12.3919 11.7584 14.4041 11.7584 15.0044 10.3393C15.574 8.99268 16.1436 7.68027 16.7133 6.4021C17.3057 5.1011 17.864 3.90281 18.388 2.80723C18.7043 2.16046 18.9977 1.57475 19.2682 1.05011C19.6038 0.39915 20.2794 -0.000183105 21.0118 -0.000183105H22.9454C23.9394 -0.000183105 24.7844 0.729473 24.9066 1.71587C25.0448 2.83035 25.1733 4.02723 25.2921 5.30652C25.4971 7.24661 25.668 9.27799 25.8048 11.4007C25.9643 13.5005 26.101 15.6118 26.2149 17.7345C26.3018 19.0834 26.3795 20.3816 26.4479 21.6291C26.5106 22.7701 25.5997 23.7259 24.4569 23.7259H23.3031C22.2216 23.7259 21.3364 22.8663 21.3003 21.7854C21.2416 20.0299 21.1708 18.166 21.0881 16.1938C21.0219 14.6145 20.9364 13.0274 20.8316 11.4326C20.7728 10.5376 19.5631 10.3372 19.2083 11.161C18.707 12.3251 18.2057 13.4891 17.7045 14.6532C17.226 15.8172 16.7589 16.9356 16.3031 18.0084C16.0715 18.5421 15.8575 19.0375 15.6611 19.4946C15.3441 20.2325 14.6193 20.7131 13.8161 20.7131H12.7405C11.9374 20.7131 11.2126 20.2325 10.8956 19.4946C10.6992 19.0375 10.4852 18.5421 10.2535 18.0084C9.79783 16.9356 9.31933 15.8172 8.81805 14.6532C8.33955 13.4891 7.84966 12.3251 7.34837 11.161C6.99362 10.3372 5.78387 10.5376 5.72508 11.4326C5.62031 13.0274 5.5348 14.6145 5.46856 16.1938C5.38583 18.166 5.31512 20.0299 5.25643 21.7854C5.22029 22.8663 4.33504 23.7259 3.25356 23.7259H2.09976C0.956996 23.7259 0.0464116 22.7701 0.104228 21.6288C0.167421 20.3814 0.235214 19.0833 0.307606 17.7345C0.44432 15.6118 0.581034 13.5005 0.717748 11.4007C0.877248 9.27799 1.04814 7.24661 1.23043 5.30652C1.3641 4.02702 1.50261 2.82996 1.64597 1.71533C1.77275 0.729504 2.61734 -0.000183105 3.61128 -0.000183105H5.78417Z" fill="white"/>
<path d="M41.9824 23.7259C41.1026 23.7259 40.33 23.1496 40.0459 22.3169C39.9194 21.9464 39.7865 21.5716 39.647 21.1924C39.5049 20.7763 39.3628 20.3601 39.2207 19.944C38.9442 19.1345 38.1835 18.5904 37.328 18.5904H30.9606C30.1051 18.5904 29.346 19.135 29.0597 19.9412C28.9116 20.3582 28.7608 20.7753 28.6074 21.1924C28.4783 21.5705 28.3534 21.9443 28.233 22.3137C27.9602 23.1502 27.186 23.7259 26.3062 23.7259H25.0628C23.6869 23.7259 22.722 22.3687 23.1812 21.0717C23.7328 19.5135 24.2656 18.036 24.7794 16.6389C25.5769 14.4706 26.3516 12.4278 27.1035 10.5105C27.8783 8.59325 28.6302 6.7787 29.3593 5.06686C29.9401 3.72713 30.5344 2.41462 31.1423 1.12935C31.4699 0.43682 32.1699 -0.000183105 32.936 -0.000183105H35.5078C36.282 -0.000183105 36.9876 0.446223 37.3125 1.149C37.9037 2.428 38.4882 3.73396 39.066 5.06686C39.8179 6.7787 40.5699 8.59325 41.3218 10.5105C42.0965 12.4278 42.8826 14.4706 43.6801 16.6389C44.1939 18.036 44.7267 19.5135 45.2783 21.0717C45.7376 22.3687 44.7726 23.7259 43.3967 23.7259H41.9824ZM34.657 6.7787C34.4744 6.30314 33.78 6.30314 33.5975 6.7787C33.3696 7.37214 33.1076 8.05688 32.8113 8.83291C32.5151 9.60894 32.1847 10.4649 31.8202 11.4007C31.7864 11.4932 31.7524 11.5863 31.7184 11.6797C31.2458 12.9778 32.2114 14.345 33.5928 14.345H34.6616C36.0431 14.345 37.0087 12.9778 36.536 11.6797C36.502 11.5863 36.4681 11.4932 36.4343 11.4007C36.0925 10.4649 35.7621 9.60894 35.4431 8.83291C35.1469 8.05688 34.8848 7.37214 34.657 6.7787Z" fill="white"/>
<path d="M56.8796 23.7259C56.1216 23.7259 55.4311 23.2961 55.0787 22.625C54.5733 21.6627 54.0321 20.6944 53.4552 19.7202C52.9988 18.9135 52.499 18.0989 51.9557 17.2764C51.3746 16.3966 50.1212 16.3859 49.5246 17.2552C49.0461 17.9855 48.5562 18.7616 48.055 19.5833C47.5765 20.4049 47.1207 21.1924 46.6878 21.9456C46.5529 22.1803 46.4291 22.3994 46.3164 22.6031C45.9417 23.2796 45.2376 23.7259 44.4642 23.7259H43.0068C41.4908 23.7259 40.5348 22.1097 41.3151 20.81C41.8833 19.8635 42.4893 18.8954 43.1333 17.9057C44.2544 16.2116 45.4785 14.4303 46.8056 12.5616C47.2879 11.8824 47.3047 10.9759 46.8427 10.2827L42.0612 3.10906C41.1753 1.77994 42.1281 -0.000183105 43.7254 -0.000183105H45.3391C46.0292 -0.000183105 46.6706 0.355613 47.0359 0.941118L49.3467 4.64479C50.1344 5.90729 51.9759 5.89805 52.7509 4.62769L54.9895 0.958212C55.3527 0.362966 55.9996 -0.000183105 56.6969 -0.000183105H57.9613C59.5505 -0.000183105 60.5049 1.76386 59.6354 3.09408L54.9155 10.3149C54.4503 11.0267 54.4877 11.9536 54.9971 12.6344C56.5379 14.6936 57.8582 16.6219 58.9579 18.4192C59.4924 19.2834 59.9806 20.0915 60.4224 20.8435C61.1837 22.1391 60.2339 23.7259 58.7312 23.7259H56.8796Z" fill="white"/>
<path d="M72.2339 -0.00017721C75.7657 -0.00017721 78.4772 0.627497 80.3684 1.88285C82.2596 3.11537 83.2052 5.14675 83.2052 7.977C83.2052 10.8301 82.2482 12.8957 80.3342 14.1739C78.4202 15.4292 75.686 16.0569 72.1314 16.0569C71.2065 16.0569 70.4567 16.8067 70.4567 17.7316V21.9998C70.4567 23.1044 69.5612 23.9998 68.4567 23.9998H67.1248C66.0202 23.9998 65.1248 23.1044 65.1248 21.9998V2.26147C65.1248 1.30552 65.8006 0.47639 66.7479 0.347816C67.4169 0.257016 68.1063 0.186667 68.8161 0.13677C70.1149 0.0454719 71.2542 -0.00017721 72.2339 -0.00017721ZM72.5757 4.55332C72.1884 4.55332 71.801 4.56473 71.4137 4.58755C70.8724 4.62144 70.4567 5.07315 70.4567 5.61549V9.82864C70.4567 10.7536 71.2065 11.5034 72.1314 11.5034C73.977 11.5034 75.367 11.2523 76.3012 10.7502C77.2354 10.248 77.7025 9.31223 77.7025 7.94276C77.7025 7.28085 77.5772 6.73306 77.3265 6.29939C77.0987 5.86573 76.7569 5.52336 76.3012 5.27229C75.8683 4.9984 75.3328 4.8158 74.6948 4.7245C74.0568 4.61038 73.3504 4.55332 72.5757 4.55332Z" fill="white"/>
<path d="M99.4579 23.9998C98.5781 23.9998 97.8055 23.4235 97.5214 22.5908C97.395 22.2203 97.262 21.8455 97.1226 21.4663C96.9804 21.0502 96.8383 20.634 96.6962 20.2179C96.4197 19.4084 95.659 18.8643 94.8035 18.8643H88.4361C87.5807 18.8643 86.8215 19.4089 86.5352 20.2151C86.3871 20.6321 86.2363 21.0492 86.0829 21.4663C85.9538 21.8444 85.829 22.2182 85.7085 22.5877C85.4357 23.4241 84.6615 23.9998 83.7817 23.9998H82.5383C81.1624 23.9998 80.1975 22.6426 80.6567 21.3456C81.2083 19.7874 81.7411 18.3099 82.2549 16.9128C83.0524 14.7445 83.8271 12.7017 84.579 10.7844C85.3538 8.86715 86.1057 7.0526 86.8348 5.34076C87.4156 4.00103 88.0099 2.68852 88.6178 1.40325C88.9454 0.710721 89.6454 0.273718 90.4115 0.273718H92.9833C93.7575 0.273718 94.4632 0.720124 94.788 1.4229C95.3792 2.7019 95.9637 4.00786 96.5415 5.34076C97.2934 7.0526 98.0454 8.86715 98.7973 10.7844C99.572 12.7017 100.358 14.7445 101.156 16.9128C101.669 18.3099 102.202 19.7875 102.754 21.3456C103.213 22.6426 102.248 23.9998 100.872 23.9998H99.4579ZM92.1325 7.0526C91.9499 6.57704 91.2556 6.57704 91.073 7.0526C90.8451 7.64604 90.5831 8.33078 90.2869 9.10681C89.9906 9.88284 89.6603 10.7388 89.2957 11.6746C89.2619 11.7671 89.228 11.8602 89.1939 11.9536C88.7213 13.2517 89.6869 14.6189 91.0683 14.6189H92.1372C93.5186 14.6189 94.4842 13.2517 94.0115 11.9536C93.9775 11.8602 93.9436 11.7671 93.9098 11.6746C93.568 10.7388 93.2376 9.88284 92.9186 9.10681C92.6224 8.33078 92.3604 7.64604 92.1325 7.0526Z" fill="white"/>
<path d="M106.319 7.08807C107.051 8.42295 108.939 8.4235 109.679 7.09346C110.036 6.45217 110.386 5.81087 110.729 5.16958C111.386 3.9389 112.004 2.70164 112.583 1.4578C112.917 0.740768 113.631 0.273718 114.422 0.273718H115.741C117.233 0.273718 118.197 1.84803 117.494 3.16426C116.669 4.70777 115.827 6.22072 114.967 7.7031C113.672 9.93666 112.307 12.1801 110.873 14.4335C110.668 14.7561 110.558 15.1303 110.558 15.5126V21.9998C110.558 23.1044 109.662 23.9998 108.558 23.9998H107.226C106.121 23.9998 105.226 23.1044 105.226 21.9998V15.5811C105.226 15.1987 105.116 14.8245 104.911 14.502C103.476 12.2471 102.1 9.99223 100.783 7.73734C99.9224 6.23958 99.0794 4.71558 98.2539 3.16534C97.5525 1.84807 98.5169 0.273718 100.009 0.273718H101.635C102.426 0.273718 103.141 0.740603 103.473 1.45855C104.047 2.70214 104.654 3.93915 105.294 5.16958C105.627 5.80908 105.969 6.44857 106.319 7.08807Z" fill="white"/>
</svg>
