<svg width="40" height="24" viewBox="0 0 40 24" fill="none" xmlns="http://www.w3.org/2000/svg">
<path d="M39.8707 11.9612C39.8707 18.543 34.5546 23.9225 27.9095 23.9225C21.3276 23.9225 15.9482 18.543 15.9482 11.9612C15.9482 5.37925 21.2643 -0.000183105 27.8462 -0.000183105C34.5546 -0.000183105 39.8707 5.37925 39.8707 11.9612Z" fill="#FFB600"/>
<path d="M27.9095 -0.000183105C34.4913 -0.000183105 39.8707 5.37925 39.8707 11.9612C39.8707 18.543 34.5546 23.9225 27.9095 23.9225C21.3276 23.9225 15.9482 18.543 15.9482 11.9612" fill="#F7981D"/>
<path d="M27.9097 -0.000183105C34.4915 -0.000183105 39.871 5.37925 39.871 11.9612C39.871 18.543 34.5548 23.9225 27.9097 23.9225" fill="#FF8500"/>
<path d="M11.8347 -0.000183105C5.31612 0.0631044 0 5.37925 0 11.9612C0 18.543 5.31612 23.9225 11.9613 23.9225C15.0623 23.9225 17.847 22.72 19.9987 20.8214C20.4417 20.4417 20.8215 19.9987 21.2012 19.5556H18.733C18.4166 19.1759 18.1001 18.7329 17.847 18.3532H22.0872C22.3404 17.9735 22.5935 17.5304 22.7834 17.0874H17.1508C16.961 16.7077 16.7711 16.2647 16.6445 15.8217H23.2264C23.6061 14.6192 23.8593 13.3535 23.8593 12.0244C23.8593 11.1384 23.7327 10.3157 23.6061 9.49294H16.2648C16.3281 9.04993 16.4547 8.6702 16.5812 8.22719H23.1631C23.0365 7.78418 22.8467 7.34116 22.6568 6.96144H17.0875C17.2774 6.51843 17.5305 6.1387 17.7837 5.69569H22.0239C21.7708 5.25268 21.4543 4.80967 21.0746 4.42994H18.733C19.1127 3.98693 19.4924 3.6072 19.9354 3.22748C17.847 1.26557 14.9991 0.126392 11.898 0.126392C11.898 -0.000183228 11.898 -0.000183105 11.8347 -0.000183105Z" fill="#FF5050"/>
<path d="M0 11.961C0 18.5428 5.31612 23.9222 11.9613 23.9222C15.0623 23.9222 17.847 22.7198 19.9987 20.8212C20.4417 20.4414 20.8215 19.9984 21.2012 19.5554H18.733C18.4166 19.1757 18.1001 18.7327 17.847 18.353H22.0872C22.3404 17.9733 22.5935 17.5303 22.7834 17.0872H17.1508C16.961 16.7075 16.7711 16.2645 16.6445 15.8215H23.2264C23.6061 14.6191 23.8593 13.3533 23.8593 12.0243C23.8593 11.1383 23.7327 10.3156 23.6061 9.49284H16.2648C16.3281 9.04983 16.4547 8.67011 16.5812 8.2271H23.1631C23.0365 7.7841 22.8467 7.34109 22.6568 6.96137H17.0875C17.2774 6.51836 17.5305 6.13864 17.7837 5.69563H22.0239C21.7708 5.25263 21.4543 4.80962 21.0746 4.4299H18.733C19.1127 3.98689 19.4924 3.60717 19.9354 3.22745C17.847 1.26557 14.9991 0.126404 11.898 0.126404H11.8347" fill="#E52836"/>
<path d="M11.9612 23.9222C15.0622 23.9222 17.8469 22.7198 19.9986 20.8212C20.4416 20.4414 20.8214 19.9984 21.2011 19.5554H18.7329C18.4164 19.1757 18.1 18.7327 17.8469 18.353H22.0871C22.3402 17.9733 22.5934 17.5303 22.7833 17.0872H17.1507C16.9608 16.7075 16.771 16.2645 16.6444 15.8215H23.2263C23.606 14.6191 23.8591 13.3533 23.8591 12.0243C23.8591 11.1383 23.7326 10.3156 23.606 9.49284H16.2647C16.328 9.04983 16.4545 8.67011 16.5811 8.2271H23.163C23.0364 7.7841 22.8465 7.34109 22.6567 6.96137H17.0874C17.2773 6.51836 17.5304 6.13864 17.7836 5.69563H22.0238C21.7707 5.25263 21.4542 4.80962 21.0745 4.4299H18.7329C19.1126 3.98689 19.4923 3.60717 19.9353 3.22745C17.8469 1.26557 14.9989 0.126404 11.8979 0.126404H11.8346" fill="#CB2026"/>
<path d="M16.2013 14.9922L16.3912 13.9164C16.3279 13.9164 16.2013 13.9796 16.0747 13.9796C15.6317 13.9796 15.5684 13.7265 15.6317 13.5999L16.0114 11.3849H16.7076L16.8975 10.1824H16.2646L16.3912 9.42297H15.1254C15.1254 9.42297 14.366 13.5999 14.366 14.1062C14.366 14.8657 14.809 15.1821 15.3786 15.1821C15.7583 15.1821 16.0747 15.0555 16.2013 14.9922Z" fill="white"/>
<path d="M16.6443 12.9737C16.6443 14.7457 17.8467 15.1887 18.8593 15.1887C19.8086 15.1887 20.1884 14.9989 20.1884 14.9989L20.4415 13.7964C20.4415 13.7964 19.7453 14.1128 19.1125 14.1128C17.7202 14.1128 17.9733 13.1002 17.9733 13.1002H20.5681C20.5681 13.1002 20.7579 12.2775 20.7579 11.9611C20.7579 11.1383 20.3149 10.1257 18.9226 10.1257C17.5936 9.99917 16.6443 11.3915 16.6443 12.9737ZM18.8593 11.1383C19.5555 11.1383 19.4289 11.9611 19.4289 12.0244H18.0366C18.0366 11.9611 18.1632 11.1383 18.8593 11.1383Z" fill="white"/>
<path d="M26.8969 14.9989L27.1501 13.6065C27.1501 13.6065 26.5172 13.923 26.0742 13.923C25.1882 13.923 24.8085 13.2268 24.8085 12.4674C24.8085 10.9485 25.5679 10.1257 26.4539 10.1257C27.0868 10.1257 27.5931 10.5055 27.5931 10.5055L27.783 9.17642C27.783 9.17642 27.0235 8.85999 26.3274 8.85999C24.8717 8.85999 23.4161 10.1257 23.4161 12.5307C23.4161 14.1128 24.1756 15.1887 25.6945 15.1887C26.2008 15.1887 26.8969 14.9989 26.8969 14.9989Z" fill="white"/>
<path d="M9.23974 9.99915C8.35372 9.99915 7.72086 10.2523 7.72086 10.2523L7.53099 11.3282C7.53099 11.3282 8.10058 11.075 8.92331 11.075C9.36631 11.075 9.74604 11.1383 9.74604 11.518C9.74604 11.7712 9.68275 11.8345 9.68275 11.8345C9.68275 11.8345 9.30303 11.8345 9.11317 11.8345C8.03729 11.8345 6.83484 12.2775 6.83484 13.7331C6.83484 14.8722 7.59428 15.1254 8.03729 15.1254C8.92331 15.1254 9.30303 14.5558 9.36631 14.5558L9.30303 15.0621H10.4422L10.9485 11.5813C10.9485 10.0624 9.68275 9.99915 9.23974 9.99915ZM9.49289 12.8471C9.49289 13.0369 9.36631 14.0495 8.60687 14.0495C8.22715 14.0495 8.10058 13.7331 8.10058 13.5432C8.10058 13.2268 8.29044 12.7838 9.23974 12.7838C9.4296 12.8471 9.49289 12.8471 9.49289 12.8471Z" fill="white"/>
<path d="M12.1509 15.1254C12.4674 15.1254 14.0496 15.1887 14.0496 13.48C14.0496 11.8978 12.5307 12.2142 12.5307 11.5814C12.5307 11.2649 12.7838 11.1384 13.2268 11.1384C13.4167 11.1384 14.1129 11.2016 14.1129 11.2016L14.3027 10.0625C14.3027 10.0625 13.8597 9.93591 13.1003 9.93591C12.1509 9.93591 11.2016 10.3156 11.2016 11.5814C11.2016 13.037 12.7838 12.9104 12.7838 13.48C12.7838 13.8597 12.3408 13.923 12.0244 13.923C11.4548 13.923 10.8852 13.7331 10.8852 13.7331L10.6953 14.8723C10.7586 14.9989 11.075 15.1254 12.1509 15.1254Z" fill="white"/>
<path d="M37.4024 8.98511L37.1493 10.6939C37.1493 10.6939 36.643 10.061 35.9468 10.061C34.8076 10.061 33.795 11.4533 33.795 13.0988C33.795 14.1113 34.3013 15.1872 35.3772 15.1872C36.1367 15.1872 36.5797 14.6809 36.5797 14.6809L36.5164 15.1239H37.7821L38.7314 9.04839L37.4024 8.98511ZM36.8328 12.3393C36.8328 13.0355 36.5164 13.9215 35.8202 13.9215C35.3772 13.9215 35.1241 13.5418 35.1241 12.9089C35.1241 11.8963 35.5671 11.2634 36.1367 11.2634C36.5797 11.2634 36.8328 11.5799 36.8328 12.3393Z" fill="white"/>
<path d="M2.34151 15.0607L3.10096 10.504L3.22754 15.0607H4.11357L5.75906 10.504L5.06289 15.0607H6.39193L7.40454 8.98511H5.31604L4.05028 12.7191L3.98699 8.98511H2.15164L1.13904 15.0607H2.34151Z" fill="white"/>
<path d="M21.9605 15.0621C22.3402 12.9737 22.4035 11.2649 23.2895 11.5813C23.4161 10.7586 23.606 10.4422 23.7325 10.1257C23.7325 10.1257 23.6693 10.1257 23.4794 10.1257C22.9098 10.1257 22.4668 10.8852 22.4668 10.8852L22.5934 10.189H21.391L20.5682 15.1254H21.9605V15.0621Z" fill="white"/>
<path d="M29.808 9.99915C28.922 9.99915 28.2891 10.2523 28.2891 10.2523L28.0992 11.3282C28.0992 11.3282 28.6688 11.075 29.4915 11.075C29.9346 11.075 30.3143 11.1383 30.3143 11.518C30.3143 11.7712 30.251 11.8345 30.251 11.8345C30.251 11.8345 29.8713 11.8345 29.6814 11.8345C28.6055 11.8345 27.4031 12.2775 27.4031 13.7331C27.4031 14.8722 28.1625 15.1254 28.6055 15.1254C29.4916 15.1254 29.8713 14.5558 29.9346 14.5558L29.8713 15.0621H31.0104L31.5167 11.5813C31.58 10.0624 30.251 9.99915 29.808 9.99915ZM30.1244 12.8471C30.1244 13.0369 29.9978 14.0495 29.2384 14.0495C28.8587 14.0495 28.7321 13.7331 28.7321 13.5432C28.7321 13.2268 28.922 12.7838 29.8713 12.7838C30.0611 12.8471 30.0611 12.8471 30.1244 12.8471Z" fill="white"/>
<path d="M32.5926 15.0621C32.9723 12.9737 33.0356 11.2649 33.9216 11.5813C34.0482 10.7586 34.2381 10.4422 34.3646 10.1257C34.3646 10.1257 34.3013 10.1257 34.1115 10.1257C33.5419 10.1257 33.0989 10.8852 33.0989 10.8852L33.2255 10.189H32.023L31.2003 15.1254H32.5926V15.0621Z" fill="white"/>
<path d="M14.2394 14.1062C14.2394 14.8657 14.6824 15.1821 15.252 15.1821C15.695 15.1821 16.0747 15.0555 16.2013 14.9922L16.3912 13.9164C16.3279 13.9164 16.2013 13.9796 16.0747 13.9796C15.6317 13.9796 15.5684 13.7265 15.6317 13.5999L16.0114 11.3849H16.7076L16.8975 10.1824H16.2646L16.3912 9.42297" fill="#DCE5E5"/>
<path d="M17.2772 12.9737C17.2772 14.7457 17.8468 15.1887 18.8594 15.1887C19.8086 15.1887 20.1884 14.9989 20.1884 14.9989L20.4415 13.7964C20.4415 13.7964 19.7454 14.1128 19.1125 14.1128C17.7202 14.1128 17.9734 13.1002 17.9734 13.1002H20.5681C20.5681 13.1002 20.7579 12.2775 20.7579 11.9611C20.7579 11.1383 20.3149 10.1257 18.9226 10.1257C17.5937 9.99917 17.2772 11.3915 17.2772 12.9737ZM18.8594 11.1383C19.5555 11.1383 19.6821 11.9611 19.6821 12.0244H18.0367C18.0367 11.9611 18.1632 11.1383 18.8594 11.1383Z" fill="#DCE5E5"/>
<path d="M26.8969 14.9989L27.15 13.6065C27.15 13.6065 26.5171 13.923 26.0741 13.923C25.1881 13.923 24.8084 13.2268 24.8084 12.4674C24.8084 10.9485 25.5678 10.1257 26.4539 10.1257C27.0867 10.1257 27.593 10.5055 27.593 10.5055L27.7829 9.17642C27.7829 9.17642 27.0234 8.85999 26.3273 8.85999C24.8717 8.85999 24.049 10.1257 24.049 12.5307C24.049 14.1128 24.1756 15.1887 25.6944 15.1887C26.2007 15.1887 26.8969 14.9989 26.8969 14.9989Z" fill="#DCE5E5"/>
<path d="M7.53099 11.3915C7.53099 11.3915 8.10058 11.1383 8.92331 11.1383C9.36631 11.1383 9.74604 11.2016 9.74604 11.5814C9.74604 11.8345 9.68275 11.8978 9.68275 11.8978C9.68275 11.8978 9.30303 11.8978 9.11317 11.8978C8.03729 11.8978 6.83484 12.3408 6.83484 13.7964C6.83484 14.9356 7.59428 15.1888 8.03729 15.1888C8.92331 15.1888 9.30303 14.6192 9.36631 14.6192L9.30303 15.1255H10.4422L10.9485 11.6446C10.9485 10.189 9.68275 10.1257 9.17645 10.1257L7.53099 11.3915ZM10.1258 12.8471C10.1258 13.037 9.36631 14.0496 8.60687 14.0496C8.22715 14.0496 8.10058 13.7331 8.10058 13.5433C8.10058 13.2268 8.29044 12.7838 9.23974 12.7838C9.4296 12.8471 10.1258 12.8471 10.1258 12.8471Z" fill="#DCE5E5"/>
<path d="M10.7587 14.9989C10.7587 14.9989 11.1384 15.1254 12.2143 15.1254C12.5307 15.1254 14.1129 15.1887 14.1129 13.48C14.1129 11.8978 12.594 12.2142 12.594 11.5814C12.594 11.2649 12.8472 11.1384 13.2902 11.1384C13.4801 11.1384 14.1762 11.2016 14.1762 11.2016L14.3661 10.0625C14.3661 10.0625 13.9231 9.93591 13.1636 9.93591C12.2143 9.93591 11.8979 10.3156 11.8979 11.5814C11.8979 13.037 12.8472 12.9104 12.8472 13.48C12.8472 13.8597 12.4042 13.923 12.0877 13.923" fill="#DCE5E5"/>
<path d="M37.1491 10.6931C37.1491 10.6931 36.6429 10.0602 35.9467 10.0602C34.8075 10.0602 34.4278 11.4525 34.4278 13.098C34.4278 14.1106 34.3012 15.1865 35.3771 15.1865C36.1366 15.1865 36.5796 14.6802 36.5796 14.6802L36.5163 15.1232H37.782L38.7313 9.04761L37.1491 10.6931ZM37.0859 12.3385C37.0859 13.0347 36.5163 13.9207 35.8201 13.9207C35.3771 13.9207 35.124 13.541 35.124 12.9081C35.124 11.8955 35.567 11.2627 36.1366 11.2627C36.5796 11.2627 37.0859 11.5791 37.0859 12.3385Z" fill="#DCE5E5"/>
<path d="M2.34151 15.0607L3.10096 10.504L3.22754 15.0607H4.11357L5.75906 10.504L5.06289 15.0607H6.39193L7.40454 8.98511H5.82234L4.05028 12.7191L3.98699 8.98511H3.29083L1.13904 15.0607H2.34151Z" fill="#DCE5E5"/>
<path d="M20.6313 15.0621H21.9604C22.3401 12.9737 22.4034 11.2649 23.2894 11.5813C23.416 10.7586 23.6058 10.4422 23.7324 10.1257C23.7324 10.1257 23.6691 10.1257 23.4793 10.1257C22.9097 10.1257 22.4667 10.8852 22.4667 10.8852L22.5933 10.189" fill="#DCE5E5"/>
<path d="M28.0992 11.3915C28.0992 11.3915 28.6688 11.1383 29.4915 11.1383C29.9346 11.1383 30.3143 11.2016 30.3143 11.5814C30.3143 11.8345 30.251 11.8978 30.251 11.8978C30.251 11.8978 29.8713 11.8978 29.6814 11.8978C28.6055 11.8978 27.4031 12.3408 27.4031 13.7964C27.4031 14.9356 28.1625 15.1888 28.6055 15.1888C29.4915 15.1888 29.8713 14.6192 29.9346 14.6192L29.8713 15.1255H31.0104L31.5167 11.6446C31.5167 10.189 30.251 10.1257 29.7447 10.1257L28.0992 11.3915ZM30.694 12.8471C30.694 13.037 29.9346 14.0496 29.1751 14.0496C28.7954 14.0496 28.6688 13.7331 28.6688 13.5433C28.6688 13.2268 28.8587 12.7838 29.808 12.7838C30.0611 12.8471 30.694 12.8471 30.694 12.8471Z" fill="#DCE5E5"/>
<path d="M31.2637 15.0621H32.5927C32.9724 12.9737 33.0357 11.2649 33.9217 11.5813C34.0483 10.7586 34.2382 10.4422 34.3647 10.1257C34.3647 10.1257 34.3015 10.1257 34.1116 10.1257C33.542 10.1257 33.099 10.8852 33.099 10.8852L33.2256 10.189" fill="#DCE5E5"/>
</svg>
