<svg width="41" height="13" viewBox="0 0 41 13" fill="none" xmlns="http://www.w3.org/2000/svg">
<path d="M14.7672 12.2715L16.8128 0.764587H20.0092L18.0274 12.2715H14.7672Z" fill="#3C58BF"/>
<path d="M14.7672 12.2715L17.3882 0.764587H20.0092L18.0274 12.2715H14.7672Z" fill="#293688"/>
<path d="M29.5982 0.892273C28.9589 0.636566 27.9361 0.380859 26.6575 0.380859C23.4612 0.380859 21.1598 1.97903 21.1598 4.28039C21.1598 6.00641 22.758 6.90139 24.0365 7.47673C25.3151 8.05207 25.6986 8.43563 25.6986 8.94705C25.6986 9.71417 24.6758 10.0977 23.7808 10.0977C22.5023 10.0977 21.7991 9.90595 20.7123 9.45846L20.2648 9.26668L19.8174 11.8877C20.5845 12.2073 21.9909 12.5269 23.4612 12.5269C26.8493 12.5269 29.0868 10.9288 29.0868 8.49956C29.0868 7.1571 28.2557 6.13427 26.3379 5.30322C25.1872 4.72788 24.484 4.40825 24.484 3.83291C24.484 3.32149 25.0594 2.81008 26.3379 2.81008C27.4247 2.81008 28.1918 3.00186 28.7671 3.25756L29.0868 3.38542L29.5982 0.892273Z" fill="#3C58BF"/>
<path d="M29.5982 0.892273C28.9589 0.636566 27.9361 0.380859 26.6575 0.380859C23.4612 0.380859 21.7352 1.97903 21.7352 4.28039C21.7352 6.00641 22.758 6.90139 24.0365 7.47673C25.3151 8.05207 25.6986 8.43563 25.6986 8.94705C25.6986 9.71417 24.6758 10.0977 23.7808 10.0977C22.5023 10.0977 21.7991 9.90595 20.7123 9.45846L20.2648 9.26668L19.8174 11.8877C20.5845 12.2073 21.9909 12.5269 23.4612 12.5269C26.8493 12.5269 29.0868 10.9288 29.0868 8.49956C29.0868 7.1571 28.2557 6.13427 26.3379 5.30322C25.1872 4.72788 24.484 4.40825 24.484 3.83291C24.484 3.32149 25.0594 2.81008 26.3379 2.81008C27.4247 2.81008 28.1918 3.00186 28.7671 3.25756L29.0868 3.38542L29.5982 0.892273Z" fill="#293688"/>
<path d="M35.0958 0.764587C34.3287 0.764587 33.7534 0.828515 33.4337 1.59564L28.6392 12.2715H32.0913L32.7305 10.3536H36.8218L37.2054 12.2715H40.2739L37.5889 0.764587H35.0958ZM33.6255 8.43583C33.8173 7.86049 34.904 5.0477 34.904 5.0477C34.904 5.0477 35.1597 4.3445 35.3515 3.89701L35.5433 4.98377C35.5433 4.98377 36.1826 7.86049 36.3104 8.49976H33.6255V8.43583Z" fill="#3C58BF"/>
<path d="M35.8629 0.764587C35.0958 0.764587 34.5205 0.828515 34.2008 1.59564L28.6392 12.2715H32.0913L32.7305 10.3536H36.8218L37.2054 12.2715H40.2739L37.5889 0.764587H35.8629ZM33.6255 8.43583C33.8812 7.79656 34.904 5.0477 34.904 5.0477C34.904 5.0477 35.1597 4.3445 35.3515 3.89701L35.5433 4.98377C35.5433 4.98377 36.1826 7.86049 36.3104 8.49976H33.6255V8.43583Z" fill="#293688"/>
<path d="M8.88587 8.81891L8.56623 7.15681C7.99089 5.23901 6.13702 3.12943 4.09137 2.1066L6.96807 12.3349H10.4201L15.5982 0.828064H12.1461L8.88587 8.81891Z" fill="#3C58BF"/>
<path d="M8.88587 8.81891L8.56623 7.15681C7.99089 5.23901 6.13702 3.12943 4.09137 2.1066L6.96807 12.3349H10.4201L15.5982 0.828064H12.7854L8.88587 8.81891Z" fill="#293688"/>
<path d="M0 0.764587L0.57534 0.892442C4.66665 1.85135 7.47942 4.28057 8.56617 7.15728L7.41549 1.72349C7.22371 0.956368 6.64837 0.764587 5.94518 0.764587H0Z" fill="#FFBC00"/>
<path d="M0 0.764587C4.09131 1.72349 7.47942 4.21664 8.56617 7.09335L7.47942 2.55454C7.28764 1.78742 6.64837 1.33993 5.94518 1.33993L0 0.764587Z" fill="#F7981D"/>
<path d="M0 0.764587C4.09131 1.72349 7.47942 4.21664 8.56617 7.09335L7.79905 4.6002C7.60727 3.83308 7.35157 3.06596 6.45659 2.74632L0 0.764587Z" fill="#ED7C00"/>
<path d="M12.0822 8.43541L9.90869 6.2619L8.88586 8.69112L8.63015 7.09295C8.05481 5.17514 6.20093 3.06555 4.15527 2.04272L7.03198 12.271H10.484L12.0822 8.43541Z" fill="#051244"/>
<path d="M18.0274 12.2711L15.2785 9.45837L14.7671 12.2711H18.0274Z" fill="#051244"/>
<path d="M25.3791 8.30865C25.6348 8.56436 25.7626 8.75615 25.6987 9.01186C25.6987 9.77899 24.6759 10.1625 23.7809 10.1625C22.5024 10.1625 21.7992 9.97077 20.7124 9.52328L20.2649 9.33149L19.8174 11.9525C20.5846 12.2722 21.991 12.5918 23.4613 12.5918C25.5069 12.5918 27.169 12.0164 28.1279 10.9936L25.3791 8.30865Z" fill="#051244"/>
<path d="M29.0868 12.2716H32.0914L32.7306 10.3538H36.822L37.2056 12.2716H40.2741L39.1873 7.60498L35.3517 3.89722L35.5434 4.92005C35.5434 4.92005 36.1827 7.79676 36.3106 8.43603H33.6256C33.8813 7.79676 34.9042 5.0479 34.9042 5.0479C34.9042 5.0479 35.1599 4.34471 35.3517 3.89722" fill="#051244"/>
</svg>
