<svg width="132" height="132" viewBox="0 0 132 132" fill="none" xmlns="http://www.w3.org/2000/svg">
<path d="M66 0C102.451 0 132 29.5492 132 66C132 102.451 102.451 132 66 132C29.5492 132 0 102.451 0 66C0 29.5492 29.5492 0 66 0ZM66 11C35.6243 11 11 35.6243 11 66C11 96.3757 35.6243 121 66 121C96.3757 121 121 96.3757 121 66C121 35.6243 96.3757 11 66 11ZM42.8609 42.8609C45.0088 40.713 48.4912 40.713 50.6391 42.8609L66 58.2175L81.3609 42.8609C83.3436 40.8783 86.4633 40.7257 88.6209 42.4034L89.1391 42.8609C91.287 45.0088 91.287 48.4912 89.1391 50.6391L73.7825 66L89.1391 81.3609C91.1217 83.3436 91.2743 86.4633 89.5966 88.6209L89.1391 89.1391C86.9912 91.287 83.5088 91.287 81.3609 89.1391L66 73.7825L50.6391 89.1391C48.6564 91.1217 45.5367 91.2743 43.3791 89.5966L42.8609 89.1391C40.713 86.9912 40.713 83.5088 42.8609 81.3609L58.2175 66L42.8609 50.6391C40.8783 48.6564 40.7257 45.5367 42.4034 43.3791L42.8609 42.8609Z" fill="#D66868"/>
</svg>
