<svg width="24" height="21" viewBox="0 0 24 21" fill="none" xmlns="http://www.w3.org/2000/svg">
<path d="M9.72386 0.384422C10.2446 -0.128141 11.0888 -0.128141 11.6095 0.384422C12.1302 0.896985 12.1302 1.72802 11.6095 2.24058L4.552 9.1875H22.6667C23.3504 9.1875 23.914 9.69418 23.991 10.3469L24 10.5C24 11.2249 23.403 11.8125 22.6667 11.8125H4.552L11.6095 18.7594C12.0901 19.2326 12.1271 19.977 11.7204 20.4919L11.6095 20.6156C11.0888 21.1281 10.2446 21.1281 9.72386 20.6156L0.390525 11.4281L0.292919 11.3209C0.28983 11.3171 0.286762 11.3133 0.283715 11.3095C0.27638 11.3004 0.269004 11.2909 0.261779 11.2813C0.237987 11.2496 0.215625 11.217 0.194757 11.1834C0.184809 11.1676 0.175332 11.1515 0.166228 11.1353C0.151725 11.1094 0.137835 11.0826 0.124872 11.0553C0.114239 11.033 0.104262 11.0103 0.0949675 10.9874C0.0844212 10.9614 0.07483 10.9355 0.0660623 10.9092C0.0596383 10.8896 0.0534638 10.8694 0.0477937 10.8491C0.0397784 10.8208 0.0328528 10.7924 0.0268866 10.7635C0.0222693 10.7407 0.0181708 10.7178 0.0146904 10.6949C0.00501492 10.6317 0 10.5664 0 10.5L0.00528844 10.6171C0.00252654 10.5866 0.000846275 10.556 0.000247955 10.5254L0 10.5C0 10.4916 8.04059e-05 10.4832 0.000240326 10.4748C0.000799179 10.4448 0.00248736 10.4138 0.00528844 10.3829C0.00768806 10.3558 0.0108162 10.33 0.0146923 10.3045C0.0181706 10.2822 0.0222699 10.2593 0.0269871 10.2365C0.0328534 10.2076 0.039778 10.1792 0.0476278 10.1511C0.0534634 10.1306 0.0596381 10.1104 0.0663172 10.0903C0.0748298 10.0645 0.0844211 10.0386 0.0948054 10.013C0.104262 9.98971 0.114239 9.967 0.124898 9.94452C0.137835 9.91739 0.151725 9.89061 0.166501 9.86439C0.175331 9.84848 0.184809 9.83245 0.194661 9.81657C0.215625 9.78301 0.237987 9.75039 0.261751 9.71885C0.300417 9.66745 0.343332 9.61838 0.390525 9.57192L0.283715 9.69052C0.316892 9.64889 0.352569 9.60928 0.390525 9.57192L9.72386 0.384422Z" fill="#3D7FFF"/>
</svg>
