<svg width="16" height="19" viewBox="0 0 16 19" fill="none" xmlns="http://www.w3.org/2000/svg">
<path d="M8 0C10.6133 0 13 2.44161 13 5.02944L13 7.03488C14.6961 7.27748 16 8.73619 16 10.4994V15.4994C16 17.4324 14.433 18.9995 12.5 18.9995H3.5C1.567 18.9995 0 17.4324 0 15.4994V10.4994C0 8.73654 1.30337 7.27805 2.99905 7.03503L3 5.17151C2.99738 2.47723 5.36081 0 8 0ZM12.5 8.99945H3.5C2.67157 8.99945 2 9.67102 2 10.4994V15.4994C2 16.3279 2.67157 16.9994 3.5 16.9994H12.5C13.3284 16.9994 14 16.3279 14 15.4994V10.4994C14 9.67102 13.3284 8.99945 12.5 8.99945ZM8 2C6.48728 2 4.99843 3.56053 5 5.17054L4.999 6.999H10.999L11 5.02944C11 3.58946 9.60377 2.10967 8.16049 2.00581L8 2Z" fill="#1DCA4E"/>
</svg>
