<svg width="31" height="19" viewBox="0 0 31 19" fill="none" xmlns="http://www.w3.org/2000/svg">
<path d="M30.8627 9.03866C30.8627 14.0123 26.8455 18.0773 21.8241 18.0773C16.8504 18.0773 12.7855 14.0123 12.7855 9.03866C12.7855 4.06501 16.8026 0 21.7762 0C26.8455 0 30.8627 4.06501 30.8627 9.03866Z" fill="#FFB600"/>
<path d="M21.8241 0C26.7977 0 30.8627 4.06501 30.8627 9.03866C30.8627 14.0123 26.8455 18.0773 21.8241 18.0773C16.8504 18.0773 12.7855 14.0123 12.7855 9.03866" fill="#F7981D"/>
<path d="M21.8242 0C26.7979 0 30.8629 4.06501 30.8629 9.03866C30.8629 14.0123 26.8457 18.0773 21.8242 18.0773" fill="#FF8500"/>
<path d="M9.67704 0C4.75123 0.0478236 0.73407 4.06501 0.73407 9.03866C0.73407 14.0123 4.75123 18.0773 9.77269 18.0773C12.116 18.0773 14.2203 17.1687 15.8463 15.734C16.181 15.447 16.468 15.1123 16.7549 14.7775H14.8898C14.6507 14.4906 14.4116 14.1558 14.2203 13.8689H17.4244C17.6157 13.5819 17.807 13.2471 17.9505 12.9124H13.6942C13.5507 12.6254 13.4073 12.2907 13.3116 11.9559H18.2852C18.5722 11.0473 18.7635 10.0908 18.7635 9.08649C18.7635 8.41696 18.6678 7.79525 18.5722 7.17354H13.0247C13.0725 6.83878 13.1681 6.55184 13.2638 6.21707H18.2374C18.1418 5.88231 17.9983 5.54754 17.8548 5.2606H13.6464C13.7899 4.92583 13.9811 4.63889 14.1724 4.30413H17.3766C17.1853 3.96936 16.9462 3.6346 16.6593 3.34765H14.8898C15.1767 3.01289 15.4637 2.72595 15.7984 2.43901C14.2203 0.956473 12.0682 0.0956472 9.72486 0.0956472C9.72486 -9.26416e-08 9.72486 0 9.67704 0Z" fill="#FF5050"/>
<path d="M0.73407 9.03886C0.73407 14.0125 4.75123 18.0774 9.77269 18.0774C12.116 18.0774 14.2203 17.1688 15.8463 15.7341C16.181 15.4471 16.468 15.1124 16.7549 14.7776H14.8898C14.6507 14.4907 14.4116 14.1559 14.2203 13.869H17.4244C17.6157 13.582 17.807 13.2473 17.9505 12.9125H13.6942C13.5507 12.6256 13.4073 12.2908 13.3116 11.9561H18.2852C18.5722 11.0474 18.7635 10.091 18.7635 9.08668C18.7635 8.41716 18.6678 7.79546 18.5722 7.17376H13.0247C13.0725 6.839 13.1681 6.55206 13.2638 6.2173H18.2374C18.1418 5.88254 17.9983 5.54778 17.8548 5.26084H13.6464C13.7899 4.92608 13.9811 4.63914 14.1724 4.30438H17.3766C17.1853 3.96961 16.9462 3.63485 16.6593 3.34791H14.8898C15.1767 3.01315 15.4637 2.72622 15.7984 2.43928C14.2203 0.956762 12.0682 0.0959473 9.72486 0.0959473H9.67704" fill="#E52836"/>
<path d="M9.77262 18.0774C12.116 18.0774 14.2202 17.1688 15.8462 15.7341C16.1809 15.4471 16.4679 15.1124 16.7548 14.7776H14.8897C14.6506 14.4907 14.4115 14.1559 14.2202 13.869H17.4243C17.6156 13.582 17.8069 13.2473 17.9504 12.9125H13.6941C13.5507 12.6256 13.4072 12.2908 13.3115 11.9561H18.2852C18.5721 11.0474 18.7634 10.091 18.7634 9.08668C18.7634 8.41716 18.6677 7.79546 18.5721 7.17376H13.0246C13.0724 6.839 13.1681 6.55206 13.2637 6.2173H18.2373C18.1417 5.88254 17.9982 5.54778 17.8548 5.26084H13.6463C13.7898 4.92608 13.9811 4.63914 14.1724 4.30438H17.3765C17.1852 3.96961 16.9461 3.63485 16.6592 3.34791H14.8897C15.1766 3.01315 15.4636 2.72622 15.7984 2.43928C14.2202 0.956762 12.0681 0.0959473 9.72479 0.0959473H9.67697" fill="#CB2026"/>
<path d="M12.9767 11.3281L13.1202 10.5151C13.0723 10.5151 12.9767 10.563 12.881 10.563C12.5463 10.563 12.4985 10.3717 12.5463 10.276L12.8332 8.60221H13.3593L13.5028 7.69357H13.0245L13.1202 7.11969H12.1637C12.1637 7.11969 11.5898 10.276 11.5898 10.6586C11.5898 11.2325 11.9246 11.4716 12.355 11.4716C12.6419 11.4716 12.881 11.376 12.9767 11.3281Z" fill="white"/>
<path d="M13.3114 9.80325C13.3114 11.1423 14.2201 11.4771 14.9852 11.4771C15.7026 11.4771 15.9895 11.3336 15.9895 11.3336L16.1808 10.425C16.1808 10.425 15.6548 10.6641 15.1765 10.6641C14.1244 10.6641 14.3157 9.89889 14.3157 9.89889H16.2765C16.2765 9.89889 16.4199 9.27719 16.4199 9.03807C16.4199 8.41637 16.0852 7.65119 15.0331 7.65119C14.0288 7.55555 13.3114 8.60766 13.3114 9.80325ZM14.9852 8.41637C15.5113 8.41637 15.4157 9.03807 15.4157 9.0859H14.3635C14.3635 9.03807 14.4592 8.41637 14.9852 8.41637Z" fill="white"/>
<path d="M21.0589 11.3335L21.2502 10.2814C21.2502 10.2814 20.772 10.5205 20.4372 10.5205C19.7677 10.5205 19.4807 9.99446 19.4807 9.42058C19.4807 8.27282 20.0546 7.65111 20.7241 7.65111C21.2024 7.65111 21.585 7.93805 21.585 7.93805L21.7284 6.93376C21.7284 6.93376 21.1546 6.69464 20.6285 6.69464C19.5286 6.69464 18.4286 7.65111 18.4286 9.46841C18.4286 10.664 19.0025 11.477 20.1503 11.477C20.5329 11.477 21.0589 11.3335 21.0589 11.3335Z" fill="white"/>
<path d="M7.71615 7.55511C7.04662 7.55511 6.56839 7.74641 6.56839 7.74641L6.42492 8.5594C6.42492 8.5594 6.85533 8.36811 7.47703 8.36811C7.81179 8.36811 8.09873 8.41593 8.09873 8.70287C8.09873 8.89417 8.05091 8.94199 8.05091 8.94199C8.05091 8.94199 7.76397 8.94199 7.6205 8.94199C6.8075 8.94199 5.89886 9.27675 5.89886 10.3767C5.89886 11.2375 6.47274 11.4288 6.80751 11.4288C7.47703 11.4288 7.76397 10.9984 7.81179 10.9984L7.76397 11.381H8.62479L9.00737 8.7507C9.00737 7.60294 8.05091 7.55511 7.71615 7.55511ZM7.90744 9.70716C7.90744 9.85063 7.81179 10.6158 7.23791 10.6158C6.95097 10.6158 6.85533 10.3767 6.85533 10.2332C6.85533 9.9941 6.9988 9.65934 7.71615 9.65934C7.85962 9.70716 7.90744 9.70716 7.90744 9.70716Z" fill="white"/>
<path d="M9.91599 11.4294C10.1551 11.4294 11.3507 11.4772 11.3507 10.186C11.3507 8.99039 10.2029 9.22951 10.2029 8.75127C10.2029 8.51216 10.3942 8.41651 10.729 8.41651C10.8725 8.41651 11.3985 8.46434 11.3985 8.46434L11.542 7.60352C11.542 7.60352 11.2072 7.50787 10.6334 7.50787C9.91599 7.50787 9.19863 7.79481 9.19863 8.75127C9.19863 9.85121 10.3942 9.75556 10.3942 10.186C10.3942 10.4729 10.0595 10.5207 9.82035 10.5207C9.38993 10.5207 8.95951 10.3773 8.95951 10.3773L8.81604 11.2381C8.86386 11.3337 9.10299 11.4294 9.91599 11.4294Z" fill="white"/>
<path d="M28.9974 6.78912L28.8062 8.08035C28.8062 8.08035 28.4236 7.60212 27.8975 7.60212C27.0367 7.60212 26.2715 8.65423 26.2715 9.89763C26.2715 10.6628 26.6541 11.4758 27.4671 11.4758C28.041 11.4758 28.3757 11.0932 28.3757 11.0932L28.3279 11.428H29.2844L30.0017 6.83695L28.9974 6.78912ZM28.567 9.32375C28.567 9.84981 28.3279 10.5193 27.8019 10.5193C27.4671 10.5193 27.2758 10.2324 27.2758 9.75416C27.2758 8.98899 27.6106 8.51076 28.041 8.51076C28.3757 8.51076 28.567 8.74987 28.567 9.32375Z" fill="white"/>
<path d="M2.50344 11.3802L3.07733 7.93689L3.17298 11.3802H3.84251L5.08594 7.93689L4.55987 11.3802H5.56418L6.32936 6.78912H4.75117L3.79469 9.61071L3.74687 6.78912H2.35997L1.59479 11.3802H2.50344Z" fill="white"/>
<path d="M17.3287 11.3812C17.6156 9.80306 17.6635 8.51182 18.333 8.75094C18.4286 8.12924 18.5721 7.89012 18.6677 7.651C18.6677 7.651 18.6199 7.651 18.4765 7.651C18.046 7.651 17.7113 8.22488 17.7113 8.22488L17.8069 7.69882H16.8983L16.2766 11.4291H17.3287V11.3812Z" fill="white"/>
<path d="M23.2587 7.55511C22.5892 7.55511 22.1109 7.74641 22.1109 7.74641L21.9675 8.5594C21.9675 8.5594 22.3979 8.36811 23.0196 8.36811C23.3543 8.36811 23.6413 8.41593 23.6413 8.70287C23.6413 8.89417 23.5935 8.94199 23.5935 8.94199C23.5935 8.94199 23.3065 8.94199 23.163 8.94199C22.3501 8.94199 21.4414 9.27675 21.4414 10.3767C21.4414 11.2375 22.0153 11.4288 22.35 11.4288C23.0196 11.4288 23.3065 10.9984 23.3543 10.9984L23.3065 11.381H24.1673L24.5499 8.7507C24.5977 7.60294 23.5935 7.55511 23.2587 7.55511ZM23.4978 9.70716C23.4978 9.85063 23.4022 10.6158 22.8283 10.6158C22.5413 10.6158 22.4457 10.3767 22.4457 10.2332C22.4457 9.9941 22.5892 9.65934 23.3065 9.65934C23.45 9.70716 23.45 9.70716 23.4978 9.70716Z" fill="white"/>
<path d="M25.3629 11.3812C25.6498 9.80306 25.6976 8.51182 26.3672 8.75094C26.4628 8.12924 26.6063 7.89012 26.7019 7.651C26.7019 7.651 26.6541 7.651 26.5106 7.651C26.0802 7.651 25.7455 8.22488 25.7455 8.22488L25.8411 7.69882H24.9325L24.3108 11.4291H25.3629V11.3812Z" fill="white"/>
<path d="M11.4941 10.6586C11.4941 11.2325 11.8289 11.4716 12.2593 11.4716C12.5941 11.4716 12.881 11.376 12.9767 11.3281L13.1201 10.5151C13.0723 10.5151 12.9767 10.563 12.881 10.563C12.5463 10.563 12.4984 10.3717 12.5463 10.276L12.8332 8.60221H13.3593L13.5027 7.69357H13.0245L13.1201 7.11969" fill="#DCE5E5"/>
<path d="M13.7897 9.80325C13.7897 11.1423 14.2201 11.4771 14.9853 11.4771C15.7026 11.4771 15.9896 11.3336 15.9896 11.3336L16.1808 10.425C16.1808 10.425 15.6548 10.6641 15.1766 10.6641C14.1245 10.6641 14.3158 9.89889 14.3158 9.89889H16.2765C16.2765 9.89889 16.42 9.27719 16.42 9.03807C16.42 8.41637 16.0852 7.65119 15.0331 7.65119C14.0288 7.55555 13.7897 8.60766 13.7897 9.80325ZM14.9853 8.41637C15.5113 8.41637 15.607 9.03807 15.607 9.0859H14.3636C14.3636 9.03807 14.4592 8.41637 14.9853 8.41637Z" fill="#DCE5E5"/>
<path d="M21.0589 11.3335L21.2502 10.2814C21.2502 10.2814 20.7719 10.5205 20.4372 10.5205C19.7677 10.5205 19.4807 9.99446 19.4807 9.42058C19.4807 8.27282 20.0546 7.65111 20.7241 7.65111C21.2023 7.65111 21.5849 7.93805 21.5849 7.93805L21.7284 6.93376C21.7284 6.93376 21.1545 6.69464 20.6285 6.69464C19.5286 6.69464 18.9069 7.65111 18.9069 9.46841C18.9069 10.664 19.0025 11.477 20.1502 11.477C20.5328 11.477 21.0589 11.3335 21.0589 11.3335Z" fill="#DCE5E5"/>
<path d="M6.42492 8.60748C6.42492 8.60748 6.85533 8.41618 7.47703 8.41618C7.81179 8.41618 8.09873 8.46401 8.09873 8.75095C8.09873 8.94224 8.05091 8.99007 8.05091 8.99007C8.05091 8.99007 7.76397 8.99007 7.6205 8.99007C6.8075 8.99007 5.89886 9.32484 5.89886 10.4248C5.89886 11.2856 6.47274 11.4769 6.80751 11.4769C7.47703 11.4769 7.76397 11.0465 7.81179 11.0465L7.76397 11.4291H8.62479L9.00737 8.79877C9.00737 7.69882 8.05091 7.651 7.66832 7.651L6.42492 8.60748ZM8.38567 9.70743C8.38567 9.8509 7.81179 10.6161 7.23791 10.6161C6.95097 10.6161 6.85533 10.377 6.85533 10.2335C6.85533 9.99437 6.9988 9.6596 7.71615 9.6596C7.85962 9.70743 8.38567 9.70743 8.38567 9.70743Z" fill="#DCE5E5"/>
<path d="M8.86392 11.3337C8.86392 11.3337 9.15087 11.4294 9.96388 11.4294C10.203 11.4294 11.3986 11.4772 11.3986 10.186C11.3986 8.99039 10.2508 9.22951 10.2508 8.75127C10.2508 8.51216 10.4421 8.41651 10.7769 8.41651C10.9204 8.41651 11.4464 8.46434 11.4464 8.46434L11.5899 7.60352C11.5899 7.60352 11.2551 7.50787 10.6812 7.50787C9.96388 7.50787 9.72476 7.79481 9.72476 8.75127C9.72476 9.85121 10.4421 9.75556 10.4421 10.186C10.4421 10.4729 10.1073 10.5207 9.86823 10.5207" fill="#DCE5E5"/>
<path d="M28.8061 8.07971C28.8061 8.07971 28.4235 7.60148 27.8974 7.60148C27.0366 7.60148 26.7497 8.65359 26.7497 9.897C26.7497 10.6622 26.654 11.4752 27.467 11.4752C28.0409 11.4752 28.3757 11.0926 28.3757 11.0926L28.3279 11.4274H29.2843L30.0017 6.8363L28.8061 8.07971ZM28.7583 9.32312C28.7583 9.84918 28.3279 10.5187 27.8018 10.5187C27.467 10.5187 27.2757 10.2318 27.2757 9.75353C27.2757 8.98836 27.6105 8.51012 28.0409 8.51012C28.3757 8.51012 28.7583 8.74924 28.7583 9.32312Z" fill="#DCE5E5"/>
<path d="M2.50344 11.3802L3.07733 7.93689L3.17298 11.3802H3.84251L5.08594 7.93689L4.55987 11.3802H5.56418L6.32936 6.78912H5.13376L3.79469 9.61071L3.74687 6.78912H3.2208L1.59479 11.3802H2.50344Z" fill="#DCE5E5"/>
<path d="M16.3243 11.3812H17.3286C17.6155 9.80305 17.6633 8.51182 18.3329 8.75094C18.4285 8.12923 18.572 7.89012 18.6676 7.651C18.6676 7.651 18.6198 7.651 18.4763 7.651C18.0459 7.651 17.7112 8.22488 17.7112 8.22488L17.8068 7.69882" fill="#DCE5E5"/>
<path d="M21.9675 8.60748C21.9675 8.60748 22.3979 8.41618 23.0196 8.41618C23.3543 8.41618 23.6413 8.46401 23.6413 8.75095C23.6413 8.94224 23.5934 8.99007 23.5934 8.99007C23.5934 8.99007 23.3065 8.99007 23.163 8.99007C22.35 8.99007 21.4414 9.32484 21.4414 10.4248C21.4414 11.2856 22.0153 11.4769 22.35 11.4769C23.0196 11.4769 23.3065 11.0465 23.3543 11.0465L23.3065 11.4291H24.1673L24.5499 8.79877C24.5499 7.69882 23.5934 7.651 23.2109 7.651L21.9675 8.60748ZM23.9282 9.70743C23.9282 9.8509 23.3543 10.6161 22.7805 10.6161C22.4935 10.6161 22.3979 10.377 22.3979 10.2335C22.3979 9.99437 22.5413 9.6596 23.2587 9.6596C23.45 9.70743 23.9282 9.70743 23.9282 9.70743Z" fill="#DCE5E5"/>
<path d="M24.3587 11.3812H25.363C25.6499 9.80305 25.6977 8.51182 26.3673 8.75094C26.4629 8.12923 26.6064 7.89012 26.702 7.651C26.702 7.651 26.6542 7.651 26.5107 7.651C26.0803 7.651 25.7456 8.22488 25.7456 8.22488L25.8412 7.69882" fill="#DCE5E5"/>
</svg>
