<svg width="132" height="132" viewBox="0 0 132 132" fill="none" xmlns="http://www.w3.org/2000/svg">
<path d="M66 0C102.451 0 132 29.5492 132 66C132 102.451 102.451 132 66 132C29.5492 132 0 102.451 0 66C0 29.5492 29.5492 0 66 0ZM66 11C35.6243 11 11 35.6243 11 66C11 96.3757 35.6243 121 66 121C96.3757 121 121 96.3757 121 66C121 35.6243 96.3757 11 66 11ZM89.595 45.595C91.7429 43.4471 95.2571 43.4471 97.405 45.595C99.5529 47.7429 99.5529 51.2571 97.405 53.405L58.8891 91.8891C56.7412 94.037 53.2588 94.037 51.1109 91.8891L31.8609 72.6391C29.713 70.4912 29.713 67.0088 31.8609 64.8609C34.0088 62.713 37.4912 62.713 39.6391 64.8609L55 80.2218L89.595 45.595Z" fill="#1DCA4E"/>
</svg>
